<svg xmlns="http://www.w3.org/2000/svg" xmlns:v="https://svgstorm.com"
viewBox = "0 0 500 500"
width="500"
height="500">
<g fill="None" fill-opacity="0.0" stroke="#FFFFFF" stroke-opacity="1.00" stroke-width="0.3"><path d="
M 0.00 500.00 
L 500.00 500.00
L 500.00 0.00
L 0.00 0.00
L 0.00 500.00
M 173.00 86.00 
C 173.00 107.67 173.00 129.33 173.00 151.00
C 178.33 151.00 183.67 151.00 189.00 151.00
C 189.00 159.33 189.00 167.67 189.00 176.00
C 183.67 176.00 178.33 176.00 173.00 176.00
C 173.00 196.67 173.00 217.33 173.00 238.00
C 178.33 238.00 183.67 238.00 189.00 238.00
C 189.00 246.00 189.00 254.00 189.00 262.00
C 183.67 262.00 178.33 262.00 173.00 262.00
C 173.00 282.67 173.00 303.33 173.00 324.00
C 178.33 324.00 183.67 324.00 189.00 324.00
C 189.00 332.00 189.00 340.00 189.00 348.00
C 183.67 348.00 178.33 348.00 173.00 348.00
C 173.00 364.00 173.00 380.00 173.00 396.00
C 189.00 396.00 205.00 396.00 221.00 396.00
C 221.00 390.67 221.00 385.33 221.00 380.00
C 229.00 380.00 237.00 380.00 245.00 380.00
C 245.00 385.33 245.00 390.67 245.00 396.00
C 265.67 396.00 286.33 396.00 307.00 396.00
C 308.20 391.17 303.76 380.14 311.01 380.01 C 318.26 379.87 324.81 380.09 332.00 380.00
C 332.00 385.33 332.00 390.67 332.00 396.00
C 352.67 396.00 373.33 396.00 394.00 396.00
C 394.00 390.67 394.00 385.33 394.00 380.00
C 402.00 380.00 410.00 380.00 418.00 380.00
C 418.00 385.33 418.00 390.67 418.00 396.00
C 439.67 396.00 461.33 396.00 483.00 396.00
C 483.00 401.67 483.00 407.33 483.00 413.00
C 374.00 413.00 265.00 413.00 156.00 413.00
C 156.00 357.33 156.00 301.67 156.00 246.00
C 149.03 238.47 145.53 242.91 145.07 251.07 C 144.62 259.23 140.68 265.46 140.07 273.07 C 139.47 280.69 134.27 285.42 132.23 292.23 C 130.19 299.04 126.59 303.71 122.08 309.08 C 117.58 314.45 114.71 318.60 110.25 324.25 C 105.79 329.90 104.10 337.52 104.00 345.00 C 103.90 352.48 101.32 360.64 100.01 368.01 C 98.69 375.38 95.40 382.51 97.00 390.00 C 98.60 397.50 101.35 401.74 107.00 407.00
C 111.49 403.51 115.96 409.68 115.00 414.00
C 93.27 419.78 87.96 395.48 79.00 382.00
C 73.80 386.36 74.32 391.02 74.00 398.00 C 73.68 404.98 83.03 403.06 85.00 409.00
C 69.81 417.02 66.98 405.31 65.01 392.99 C 63.04 380.67 65.32 371.20 69.98 359.98 C 74.63 348.75 64.64 334.75 65.00 324.00
C 57.56 330.75 58.55 340.49 55.67 349.67 C 52.79 358.85 54.50 369.51 47.75 377.75 C 41.00 385.98 37.74 387.04 25.93 390.93 C 14.11 394.81 16.91 383.34 28.08 381.08 C 39.24 378.81 41.87 370.07 44.00 361.00 C 46.12 351.92 43.60 338.05 47.31 329.31 C 51.01 320.56 53.07 312.13 58.30 304.30 C 63.53 296.48 71.97 295.81 76.30 287.30 C 80.64 278.79 82.93 270.69 86.77 261.77 C 90.62 252.85 93.29 243.83 94.98 233.98 C 96.66 224.13 97.45 213.13 98.98 202.98 C 100.50 192.82 100.49 179.04 99.01 168.99 C 97.53 158.94 90.14 153.20 87.00 145.00
C 91.43 145.04 101.90 142.86 102.30 136.30 C 102.71 129.74 104.54 120.33 110.25 127.75 C 115.95 135.18 121.88 127.20 128.25 132.75 C 134.61 138.31 138.74 135.64 139.21 144.23 C 139.68 152.81 136.90 151.45 129.92 156.92 C 122.94 162.39 133.41 172.61 135.92 163.92 C 138.44 155.24 140.70 154.11 142.98 146.98 C 145.25 139.84 146.15 134.35 147.93 127.93 C 149.71 121.50 145.76 111.24 156.00 115.00
C 156.00 105.33 156.00 95.67 156.00 86.00
C 161.67 86.00 167.33 86.00 173.00 86.00
M 462.00 140.00 
C 457.98 165.56 455.20 191.46 451.00 217.00
C 442.72 210.47 434.45 204.17 426.00 198.00
C 391.38 245.15 354.89 291.04 320.00 338.00
C 303.06 321.22 287.27 303.07 272.00 285.00
C 254.38 301.12 238.75 319.11 222.00 336.00
C 217.78 332.92 214.02 329.31 210.00 326.00
C 213.22 320.38 218.08 315.69 222.75 310.75 C 227.43 305.82 231.93 301.77 236.75 296.75 C 241.58 291.73 245.44 287.75 250.25 282.25 C 255.05 276.74 259.40 274.78 264.25 268.25 C 269.09 261.71 273.82 260.80 278.25 267.75 C 282.67 274.70 287.21 276.44 291.75 282.25 C 296.29 288.05 300.08 291.94 304.75 297.25 C 309.42 302.55 313.85 307.40 319.00 312.00
C 349.75 270.66 381.09 229.28 413.00 189.00
C 406.27 180.55 395.70 176.42 389.00 168.00
C 413.54 159.35 437.31 148.19 462.00 140.00 Z"/>
</g>
<g fill="None" fill-opacity="0.0" stroke="#000000" stroke-opacity="1.00" stroke-width="0.3"><path d="
M 173.00 86.00 
C 167.33 86.00 161.67 86.00 156.00 86.00
C 156.00 95.67 156.00 105.33 156.00 115.00
C 145.76 111.24 149.71 121.50 147.93 127.93 C 146.15 134.35 145.25 139.84 142.98 146.98 C 140.70 154.11 138.44 155.24 135.92 163.92 C 133.41 172.61 122.94 162.39 129.92 156.92 C 136.90 151.45 139.68 152.81 139.21 144.23 C 138.74 135.64 134.61 138.31 128.25 132.75 C 121.88 127.20 115.95 135.18 110.25 127.75 C 104.54 120.33 102.71 129.74 102.30 136.30 C 101.90 142.86 91.43 145.04 87.00 145.00
C 90.14 153.20 97.53 158.94 99.01 168.99 C 100.49 179.04 100.50 192.82 98.98 202.98 C 97.45 213.13 96.66 224.13 94.98 233.98 C 93.29 243.83 90.62 252.85 86.77 261.77 C 82.93 270.69 80.64 278.79 76.30 287.30 C 71.97 295.81 63.53 296.48 58.30 304.30 C 53.07 312.13 51.01 320.56 47.31 329.31 C 43.60 338.05 46.12 351.92 44.00 361.00 C 41.87 370.07 39.24 378.81 28.08 381.08 C 16.91 383.34 14.11 394.81 25.93 390.93 C 37.74 387.04 41.00 385.98 47.75 377.75 C 54.50 369.51 52.79 358.85 55.67 349.67 C 58.55 340.49 57.56 330.75 65.00 324.00
C 64.64 334.75 74.63 348.75 69.98 359.98 C 65.32 371.20 63.04 380.67 65.01 392.99 C 66.98 405.31 69.81 417.02 85.00 409.00
C 83.03 403.06 73.68 404.98 74.00 398.00 C 74.32 391.02 73.80 386.36 79.00 382.00
C 87.96 395.48 93.27 419.78 115.00 414.00
C 115.96 409.68 111.49 403.51 107.00 407.00
C 101.35 401.74 98.60 397.50 97.00 390.00 C 95.40 382.51 98.69 375.38 100.01 368.01 C 101.32 360.64 103.90 352.48 104.00 345.00 C 104.10 337.52 105.79 329.90 110.25 324.25 C 114.71 318.60 117.58 314.45 122.08 309.08 C 126.59 303.71 130.19 299.04 132.23 292.23 C 134.27 285.42 139.47 280.69 140.07 273.07 C 140.68 265.46 144.62 259.23 145.07 251.07 C 145.53 242.91 149.03 238.47 156.00 246.00
C 156.00 301.67 156.00 357.33 156.00 413.00
C 265.00 413.00 374.00 413.00 483.00 413.00
C 483.00 407.33 483.00 401.67 483.00 396.00
C 461.33 396.00 439.67 396.00 418.00 396.00
C 418.00 390.67 418.00 385.33 418.00 380.00
C 410.00 380.00 402.00 380.00 394.00 380.00
C 394.00 385.33 394.00 390.67 394.00 396.00
C 373.33 396.00 352.67 396.00 332.00 396.00
C 332.00 390.67 332.00 385.33 332.00 380.00
C 324.81 380.09 318.26 379.87 311.01 380.01 C 303.76 380.14 308.20 391.17 307.00 396.00
C 286.33 396.00 265.67 396.00 245.00 396.00
C 245.00 390.67 245.00 385.33 245.00 380.00
C 237.00 380.00 229.00 380.00 221.00 380.00
C 221.00 385.33 221.00 390.67 221.00 396.00
C 205.00 396.00 189.00 396.00 173.00 396.00
C 173.00 380.00 173.00 364.00 173.00 348.00
C 178.33 348.00 183.67 348.00 189.00 348.00
C 189.00 340.00 189.00 332.00 189.00 324.00
C 183.67 324.00 178.33 324.00 173.00 324.00
C 173.00 303.33 173.00 282.67 173.00 262.00
C 178.33 262.00 183.67 262.00 189.00 262.00
C 189.00 254.00 189.00 246.00 189.00 238.00
C 183.67 238.00 178.33 238.00 173.00 238.00
C 173.00 217.33 173.00 196.67 173.00 176.00
C 178.33 176.00 183.67 176.00 189.00 176.00
C 189.00 167.67 189.00 159.33 189.00 151.00
C 183.67 151.00 178.33 151.00 173.00 151.00
C 173.00 129.33 173.00 107.67 173.00 86.00
M 156.00 231.00 
C 146.61 221.50 145.69 202.05 147.00 188.00 C 148.31 173.95 156.25 158.98 155.00 144.00
C 157.33 172.10 155.33 202.15 156.00 231.00 Z"/>
</g>
<g fill="None" fill-opacity="0.0" stroke="#000000" stroke-opacity="1.00" stroke-width="0.3"><path d="
M 462.00 140.00 
C 437.31 148.19 413.54 159.35 389.00 168.00
C 395.70 176.42 406.27 180.55 413.00 189.00
C 381.09 229.28 349.75 270.66 319.00 312.00
C 313.85 307.40 309.42 302.55 304.75 297.25 C 300.08 291.94 296.29 288.05 291.75 282.25 C 287.21 276.44 282.67 274.70 278.25 267.75 C 273.82 260.80 269.09 261.71 264.25 268.25 C 259.40 274.78 255.05 276.74 250.25 282.25 C 245.44 287.75 241.58 291.73 236.75 296.75 C 231.93 301.77 227.43 305.82 222.75 310.75 C 218.08 315.69 213.22 320.38 210.00 326.00
C 214.02 329.31 217.78 332.92 222.00 336.00
C 238.75 319.11 254.38 301.12 272.00 285.00
C 287.27 303.07 303.06 321.22 320.00 338.00
C 354.89 291.04 391.38 245.15 426.00 198.00
C 434.45 204.17 442.72 210.47 451.00 217.00
C 455.20 191.46 457.98 165.56 462.00 140.00 Z"/>
</g>
<g fill="None" fill-opacity="0.0" stroke="#FFFFFF" stroke-opacity="1.00" stroke-width="0.3"><path d="
M 156.00 231.00 
C 155.33 202.15 157.33 172.10 155.00 144.00
C 156.25 158.98 148.31 173.95 147.00 188.00 C 145.69 202.05 146.61 221.50 156.00 231.00 Z"/>
</g>
<g fill="#FFFFFF" fill-opacity="1.00" stroke="None">
<path d="
M 0.00 500.00 
L 500.00 500.00
L 500.00 0.00
L 0.00 0.00
L 0.00 500.00
M 173.00 86.00 
C 173.00 107.67 173.00 129.33 173.00 151.00
C 178.33 151.00 183.67 151.00 189.00 151.00
C 189.00 159.33 189.00 167.67 189.00 176.00
C 183.67 176.00 178.33 176.00 173.00 176.00
C 173.00 196.67 173.00 217.33 173.00 238.00
C 178.33 238.00 183.67 238.00 189.00 238.00
C 189.00 246.00 189.00 254.00 189.00 262.00
C 183.67 262.00 178.33 262.00 173.00 262.00
C 173.00 282.67 173.00 303.33 173.00 324.00
C 178.33 324.00 183.67 324.00 189.00 324.00
C 189.00 332.00 189.00 340.00 189.00 348.00
C 183.67 348.00 178.33 348.00 173.00 348.00
C 173.00 364.00 173.00 380.00 173.00 396.00
C 189.00 396.00 205.00 396.00 221.00 396.00
C 221.00 390.67 221.00 385.33 221.00 380.00
C 229.00 380.00 237.00 380.00 245.00 380.00
C 245.00 385.33 245.00 390.67 245.00 396.00
C 265.67 396.00 286.33 396.00 307.00 396.00
C 308.20 391.17 303.76 380.14 311.01 380.01 C 318.26 379.87 324.81 380.09 332.00 380.00
C 332.00 385.33 332.00 390.67 332.00 396.00
C 352.67 396.00 373.33 396.00 394.00 396.00
C 394.00 390.67 394.00 385.33 394.00 380.00
C 402.00 380.00 410.00 380.00 418.00 380.00
C 418.00 385.33 418.00 390.67 418.00 396.00
C 439.67 396.00 461.33 396.00 483.00 396.00
C 483.00 401.67 483.00 407.33 483.00 413.00
C 374.00 413.00 265.00 413.00 156.00 413.00
C 156.00 357.33 156.00 301.67 156.00 246.00
C 149.03 238.47 145.53 242.91 145.07 251.07 C 144.62 259.23 140.68 265.46 140.07 273.07 C 139.47 280.69 134.27 285.42 132.23 292.23 C 130.19 299.04 126.59 303.71 122.08 309.08 C 117.58 314.45 114.71 318.60 110.25 324.25 C 105.79 329.90 104.10 337.52 104.00 345.00 C 103.90 352.48 101.32 360.64 100.01 368.01 C 98.69 375.38 95.40 382.51 97.00 390.00 C 98.60 397.50 101.35 401.74 107.00 407.00
C 111.49 403.51 115.96 409.68 115.00 414.00
C 93.27 419.78 87.96 395.48 79.00 382.00
C 73.80 386.36 74.32 391.02 74.00 398.00 C 73.68 404.98 83.03 403.06 85.00 409.00
C 69.81 417.02 66.98 405.31 65.01 392.99 C 63.04 380.67 65.32 371.20 69.98 359.98 C 74.63 348.75 64.64 334.75 65.00 324.00
C 57.56 330.75 58.55 340.49 55.67 349.67 C 52.79 358.85 54.50 369.51 47.75 377.75 C 41.00 385.98 37.74 387.04 25.93 390.93 C 14.11 394.81 16.91 383.34 28.08 381.08 C 39.24 378.81 41.87 370.07 44.00 361.00 C 46.12 351.92 43.60 338.05 47.31 329.31 C 51.01 320.56 53.07 312.13 58.30 304.30 C 63.53 296.48 71.97 295.81 76.30 287.30 C 80.64 278.79 82.93 270.69 86.77 261.77 C 90.62 252.85 93.29 243.83 94.98 233.98 C 96.66 224.13 97.45 213.13 98.98 202.98 C 100.50 192.82 100.49 179.04 99.01 168.99 C 97.53 158.94 90.14 153.20 87.00 145.00
C 91.43 145.04 101.90 142.86 102.30 136.30 C 102.71 129.74 104.54 120.33 110.25 127.75 C 115.95 135.18 121.88 127.20 128.25 132.75 C 134.61 138.31 138.74 135.64 139.21 144.23 C 139.68 152.81 136.90 151.45 129.92 156.92 C 122.94 162.39 133.41 172.61 135.92 163.92 C 138.44 155.24 140.70 154.11 142.98 146.98 C 145.25 139.84 146.15 134.35 147.93 127.93 C 149.71 121.50 145.76 111.24 156.00 115.00
C 156.00 105.33 156.00 95.67 156.00 86.00
C 161.67 86.00 167.33 86.00 173.00 86.00
M 462.00 140.00 
C 457.98 165.56 455.20 191.46 451.00 217.00
C 442.72 210.47 434.45 204.17 426.00 198.00
C 391.38 245.15 354.89 291.04 320.00 338.00
C 303.06 321.22 287.27 303.07 272.00 285.00
C 254.38 301.12 238.75 319.11 222.00 336.00
C 217.78 332.92 214.02 329.31 210.00 326.00
C 213.22 320.38 218.08 315.69 222.75 310.75 C 227.43 305.82 231.93 301.77 236.75 296.75 C 241.58 291.73 245.44 287.75 250.25 282.25 C 255.05 276.74 259.40 274.78 264.25 268.25 C 269.09 261.71 273.82 260.80 278.25 267.75 C 282.67 274.70 287.21 276.44 291.75 282.25 C 296.29 288.05 300.08 291.94 304.75 297.25 C 309.42 302.55 313.85 307.40 319.00 312.00
C 349.75 270.66 381.09 229.28 413.00 189.00
C 406.27 180.55 395.70 176.42 389.00 168.00
C 413.54 159.35 437.31 148.19 462.00 140.00 Z"/>
</g>
<g fill="#000000" fill-opacity="1.00" stroke="None">
<path d="
M 173.00 86.00 
C 167.33 86.00 161.67 86.00 156.00 86.00
C 156.00 95.67 156.00 105.33 156.00 115.00
C 145.76 111.24 149.71 121.50 147.93 127.93 C 146.15 134.35 145.25 139.84 142.98 146.98 C 140.70 154.11 138.44 155.24 135.92 163.92 C 133.41 172.61 122.94 162.39 129.92 156.92 C 136.90 151.45 139.68 152.81 139.21 144.23 C 138.74 135.64 134.61 138.31 128.25 132.75 C 121.88 127.20 115.95 135.18 110.25 127.75 C 104.54 120.33 102.71 129.74 102.30 136.30 C 101.90 142.86 91.43 145.04 87.00 145.00
C 90.14 153.20 97.53 158.94 99.01 168.99 C 100.49 179.04 100.50 192.82 98.98 202.98 C 97.45 213.13 96.66 224.13 94.98 233.98 C 93.29 243.83 90.62 252.85 86.77 261.77 C 82.93 270.69 80.64 278.79 76.30 287.30 C 71.97 295.81 63.53 296.48 58.30 304.30 C 53.07 312.13 51.01 320.56 47.31 329.31 C 43.60 338.05 46.12 351.92 44.00 361.00 C 41.87 370.07 39.24 378.81 28.08 381.08 C 16.91 383.34 14.11 394.81 25.93 390.93 C 37.74 387.04 41.00 385.98 47.75 377.75 C 54.50 369.51 52.79 358.85 55.67 349.67 C 58.55 340.49 57.56 330.75 65.00 324.00
C 64.64 334.75 74.63 348.75 69.98 359.98 C 65.32 371.20 63.04 380.67 65.01 392.99 C 66.98 405.31 69.81 417.02 85.00 409.00
C 83.03 403.06 73.68 404.98 74.00 398.00 C 74.32 391.02 73.80 386.36 79.00 382.00
C 87.96 395.48 93.27 419.78 115.00 414.00
C 115.96 409.68 111.49 403.51 107.00 407.00
C 101.35 401.74 98.60 397.50 97.00 390.00 C 95.40 382.51 98.69 375.38 100.01 368.01 C 101.32 360.64 103.90 352.48 104.00 345.00 C 104.10 337.52 105.79 329.90 110.25 324.25 C 114.71 318.60 117.58 314.45 122.08 309.08 C 126.59 303.71 130.19 299.04 132.23 292.23 C 134.27 285.42 139.47 280.69 140.07 273.07 C 140.68 265.46 144.62 259.23 145.07 251.07 C 145.53 242.91 149.03 238.47 156.00 246.00
C 156.00 301.67 156.00 357.33 156.00 413.00
C 265.00 413.00 374.00 413.00 483.00 413.00
C 483.00 407.33 483.00 401.67 483.00 396.00
C 461.33 396.00 439.67 396.00 418.00 396.00
C 418.00 390.67 418.00 385.33 418.00 380.00
C 410.00 380.00 402.00 380.00 394.00 380.00
C 394.00 385.33 394.00 390.67 394.00 396.00
C 373.33 396.00 352.67 396.00 332.00 396.00
C 332.00 390.67 332.00 385.33 332.00 380.00
C 324.81 380.09 318.26 379.87 311.01 380.01 C 303.76 380.14 308.20 391.17 307.00 396.00
C 286.33 396.00 265.67 396.00 245.00 396.00
C 245.00 390.67 245.00 385.33 245.00 380.00
C 237.00 380.00 229.00 380.00 221.00 380.00
C 221.00 385.33 221.00 390.67 221.00 396.00
C 205.00 396.00 189.00 396.00 173.00 396.00
C 173.00 380.00 173.00 364.00 173.00 348.00
C 178.33 348.00 183.67 348.00 189.00 348.00
C 189.00 340.00 189.00 332.00 189.00 324.00
C 183.67 324.00 178.33 324.00 173.00 324.00
C 173.00 303.33 173.00 282.67 173.00 262.00
C 178.33 262.00 183.67 262.00 189.00 262.00
C 189.00 254.00 189.00 246.00 189.00 238.00
C 183.67 238.00 178.33 238.00 173.00 238.00
C 173.00 217.33 173.00 196.67 173.00 176.00
C 178.33 176.00 183.67 176.00 189.00 176.00
C 189.00 167.67 189.00 159.33 189.00 151.00
C 183.67 151.00 178.33 151.00 173.00 151.00
C 173.00 129.33 173.00 107.67 173.00 86.00
M 156.00 231.00 
C 146.61 221.50 145.69 202.05 147.00 188.00 C 148.31 173.95 156.25 158.98 155.00 144.00
C 157.33 172.10 155.33 202.15 156.00 231.00 Z"/>
</g>
<g fill="#000000" fill-opacity="1.00" stroke="None">
<path d="
M 462.00 140.00 
C 437.31 148.19 413.54 159.35 389.00 168.00
C 395.70 176.42 406.27 180.55 413.00 189.00
C 381.09 229.28 349.75 270.66 319.00 312.00
C 313.85 307.40 309.42 302.55 304.75 297.25 C 300.08 291.94 296.29 288.05 291.75 282.25 C 287.21 276.44 282.67 274.70 278.25 267.75 C 273.82 260.80 269.09 261.71 264.25 268.25 C 259.40 274.78 255.05 276.74 250.25 282.25 C 245.44 287.75 241.58 291.73 236.75 296.75 C 231.93 301.77 227.43 305.82 222.75 310.75 C 218.08 315.69 213.22 320.38 210.00 326.00
C 214.02 329.31 217.78 332.92 222.00 336.00
C 238.75 319.11 254.38 301.12 272.00 285.00
C 287.27 303.07 303.06 321.22 320.00 338.00
C 354.89 291.04 391.38 245.15 426.00 198.00
C 434.45 204.17 442.72 210.47 451.00 217.00
C 455.20 191.46 457.98 165.56 462.00 140.00 Z"/>
</g>
<g fill="#FFFFFF" fill-opacity="1.00" stroke="None">
<path d="
M 156.00 231.00 
C 155.33 202.15 157.33 172.10 155.00 144.00
C 156.25 158.98 148.31 173.95 147.00 188.00 C 145.69 202.05 146.61 221.50 156.00 231.00 Z"/>
</g>
</svg>